<svg height="734" width="720" xmlns="http://www.w3.org/2000/svg">
<rect height="734" fill="#555" width="720"></rect>
<text fill="#7f7" font-family="Courier New" font-size="12" xml:space="preserve">
<tspan x="10" y="26">├── UNMET PEER DEPENDENCY grunt@&gt;=0.4.0</tspan>
<tspan x="10" y="42">└─┬ grunt-wiredep@3.0.1 </tspan>
<tspan x="10" y="58">  └─┬ wiredep@4.0.0 </tspan>
<tspan x="10" y="74">    ├─┬ bower-config@1.4.0 </tspan>
<tspan x="10" y="90">    │ ├── graceful-fs@4.1.11 </tspan>
<tspan x="10" y="106">    │ ├── mout@1.0.0 </tspan>
<tspan x="10" y="122">    │ ├─┬ optimist@0.6.1 </tspan>
<tspan x="10" y="138">    │ │ ├── minimist@0.0.10 </tspan>
<tspan x="10" y="154">    │ │ └── wordwrap@0.0.3 </tspan>
<tspan x="10" y="170">    │ ├─┬ osenv@0.1.4 </tspan>
<tspan x="10" y="186">    │ │ ├── os-homedir@1.0.2 </tspan>
<tspan x="10" y="202">    │ │ └── os-tmpdir@1.0.2 </tspan>
<tspan x="10" y="218">    │ └── untildify@2.1.0 </tspan>
<tspan x="10" y="234">    ├─┬ glob@7.1.1 </tspan>
<tspan x="10" y="250">    │ ├── fs.realpath@1.0.0 </tspan>
<tspan x="10" y="266">    │ ├─┬ inflight@1.0.6 </tspan>
<tspan x="10" y="282">    │ │ └── wrappy@1.0.2 </tspan>
<tspan x="10" y="298">    │ ├── inherits@2.0.3 </tspan>
<tspan x="10" y="314">    │ ├─┬ minimatch@3.0.3 </tspan>
<tspan x="10" y="330">    │ │ └─┬ brace-expansion@1.1.6 </tspan>
<tspan x="10" y="346">    │ │   ├── balanced-match@0.4.2 </tspan>
<tspan x="10" y="362">    │ │   └── concat-map@0.0.1 </tspan>
<tspan x="10" y="378">    │ ├── once@1.4.0 </tspan>
<tspan x="10" y="394">    │ └── path-is-absolute@1.0.1 </tspan>
<tspan x="10" y="410">    ├── lodash@4.17.4 </tspan>
<tspan x="10" y="426">    ├── propprop@0.3.1 </tspan>
<tspan x="10" y="442">    ├─┬ through2@2.0.3 </tspan>
<tspan x="10" y="458">    │ ├─┬ readable-stream@2.2.6 </tspan>
<tspan x="10" y="474">    │ │ ├── buffer-shims@1.0.0 </tspan>
<tspan x="10" y="490">    │ │ ├── core-util-is@1.0.2 </tspan>
<tspan x="10" y="506">    │ │ ├── isarray@1.0.0 </tspan>
<tspan x="10" y="522">    │ │ ├── process-nextick-args@1.0.7 </tspan>
<tspan x="10" y="538">    │ │ ├── string_decoder@0.10.31 </tspan>
<tspan x="10" y="554">    │ │ └── util-deprecate@1.0.2 </tspan>
<tspan x="10" y="570">    │ └── xtend@4.0.1 </tspan>
<tspan x="10" y="586">    └─┬ wiredep-cli@0.1.0 </tspan>
<tspan x="10" y="602">      ├─┬ chalk@1.1.3 </tspan>
<tspan x="10" y="618">      │ ├── ansi-styles@2.2.1 </tspan>
<tspan x="10" y="634">      │ ├── escape-string-regexp@1.0.5 </tspan>
<tspan x="10" y="650">      │ ├─┬ has-ansi@2.0.0 </tspan>
<tspan x="10" y="666">      │ │ └── ansi-regex@2.1.1 </tspan>
<tspan x="10" y="682">      │ ├── strip-ansi@3.0.1 </tspan>
<tspan x="10" y="698">      │ └── supports-color@2.0.0 </tspan>
<tspan x="10" y="714">      └── minimist@1.2.0</tspan>
</text>
</svg>
